<svg xmlns="http://www.w3.org/2000/svg" viewBox="0 0 128 128" role="img" aria-label="Arcane scholar avatar">
  <rect width="128" height="128" rx="18" fill="#18181b"/>
  <path d="M23 111c7-26 23-39 41-39s34 13 41 39" fill="#312e81"/>
  <circle cx="64" cy="56" r="31" fill="#f5d0a9"/>
  <path d="M34 48c8-22 24-31 45-25 12 4 18 13 17 26-21-8-42-7-62-1Z" fill="#4c1d95"/>
  <path d="M45 73c10 9 28 9 38 0" fill="none" stroke="#7c2d12" stroke-width="5" stroke-linecap="round"/>
  <circle cx="52" cy="57" r="3" fill="#111827"/>
  <circle cx="76" cy="57" r="3" fill="#111827"/>
  <path d="M94 19l4 9 9 4-9 4-4 9-4-9-9-4 9-4 4-9Z" fill="#c4b5fd"/>
</svg>
